<svg width="15" height="12" viewBox="0 0 15 12" fill="none" xmlns="http://www.w3.org/2000/svg">
<path d="M2.43164 4.54688C1.875 4.54688 1.58789 4.26562 1.58789 3.7207V0.826172C1.58789 0.287109 1.875 0 2.43164 0H6.75C7.30078 0 7.59375 0.287109 7.59375 0.826172V1.62891C6.14062 1.73438 4.98633 3 4.97461 4.54688H2.43164ZM7.78125 6.72656C6.72656 6.72656 5.83008 5.7832 5.83008 4.58203C5.82422 3.39844 6.73242 2.47852 7.78125 2.47852C8.83008 2.47852 9.73242 3.38672 9.73242 4.57031C9.73242 5.7832 8.83594 6.72656 7.78125 6.72656ZM12.041 7.69922C11.4902 7.69922 11.1973 7.41797 11.1973 6.87305V3.4043C11.1973 2.86523 11.4902 2.57812 12.041 2.57812H13.8047C14.3613 2.57812 14.6484 2.86523 14.6484 3.4043V6.87305C14.6484 7.41211 14.3613 7.69922 13.8047 7.69922H12.041ZM0.84375 8.83008C0.292969 8.83008 0 8.54883 0 8.00391V6.76172C0 6.22266 0.292969 5.93555 0.84375 5.93555H2.05078C2.60156 5.93555 2.89453 6.22266 2.89453 6.76172V8.00391C2.89453 8.54297 2.60156 8.83008 2.05078 8.83008H0.84375ZM4.55859 11.2324C4.01367 11.2324 3.68555 10.9746 3.68555 10.5469C3.68555 9.29883 5.26758 7.58203 7.78125 7.58203C10.2891 7.58203 11.8711 9.29883 11.8711 10.5469C11.8711 10.9746 11.543 11.2324 10.998 11.2324H4.55859Z" fill="white"/>
</svg>
